<svg width="30" height="30" viewBox="0 0 30 30" fill="none" xmlns="http://www.w3.org/2000/svg">
<rect x="0.5" y="0.25" width="29.5" height="29.5" rx="14.75" fill="#F9F5FF"/>
<path d="M15.25 10.25C15.6642 10.25 16 9.91421 16 9.5C16 9.08579 15.6642 8.75 15.25 8.75C14.8358 8.75 14.5 9.08579 14.5 9.5C14.5 9.91421 14.8358 10.25 15.25 10.25Z" stroke="#232323" stroke-width="1.5" stroke-linecap="round" stroke-linejoin="round"/>
<path d="M15.25 15.75C15.6642 15.75 16 15.4142 16 15C16 14.5858 15.6642 14.25 15.25 14.25C14.8358 14.25 14.5 14.5858 14.5 15C14.5 15.4142 14.8358 15.75 15.25 15.75Z" stroke="#232323" stroke-width="1.5" stroke-linecap="round" stroke-linejoin="round"/>
<path d="M15.25 21.25C15.6642 21.25 16 20.9142 16 20.5C16 20.0858 15.6642 19.75 15.25 19.75C14.8358 19.75 14.5 20.0858 14.5 20.5C14.5 20.9142 14.8358 21.25 15.25 21.25Z" stroke="#232323" stroke-width="1.5" stroke-linecap="round" stroke-linejoin="round"/>
</svg>
