<svg width="24" height="24" viewBox="0 0 24 24" fill="none" xmlns="http://www.w3.org/2000/svg">
<rect y="0.00195312" width="24" height="24" rx="6" fill="#F9F5FF"/>
<path d="M18.6667 15.1605V7.11378C18.6667 6.31378 18.0133 5.72045 17.22 5.78712H17.18C15.78 5.90712 13.6533 6.62045 12.4667 7.36712L12.3533 7.44045C12.16 7.56045 11.84 7.56045 11.6467 7.44045L11.48 7.34045C10.2933 6.60045 8.17334 5.89378 6.77334 5.78045C5.98 5.71378 5.33334 6.31378 5.33334 7.10712V15.1605C5.33334 15.8005 5.85334 16.4005 6.49334 16.4805L6.68667 16.5071C8.13334 16.7005 10.3667 17.4338 11.6467 18.1338L11.6733 18.1471C11.8533 18.2471 12.14 18.2471 12.3133 18.1471C13.5933 17.4405 15.8333 16.7005 17.2867 16.5071L17.5067 16.4805C18.1467 16.4005 18.6667 15.8005 18.6667 15.1605Z" stroke="#7F56D9" stroke-width="1.5" stroke-linecap="round" stroke-linejoin="round"/>
<path d="M12 7.66016V17.6602" stroke="#7F56D9" stroke-width="1.5" stroke-linecap="round" stroke-linejoin="round"/>
<path d="M9.16666 9.66016H7.66666" stroke="#7F56D9" stroke-width="1.5" stroke-linecap="round" stroke-linejoin="round"/>
<path d="M9.66666 11.6602H7.66666" stroke="#7F56D9" stroke-width="1.5" stroke-linecap="round" stroke-linejoin="round"/>
</svg>
