<svg width="25" height="25" viewBox="0 0 25 25" fill="none" xmlns="http://www.w3.org/2000/svg">
<rect x="0.5" y="0.501953" width="24" height="24" rx="6" fill="#FEF0C7"/>
<path d="M14.1667 15.6465H11.8333C11.5942 15.6465 11.3958 15.4482 11.3958 15.209C11.3958 14.9698 11.5942 14.7715 11.8333 14.7715H14.1667C14.4058 14.7715 14.6042 14.9698 14.6042 15.209C14.6042 15.4482 14.4058 15.6465 14.1667 15.6465Z" fill="#DC6803"/>
<path d="M7.16667 15.6465C6.92751 15.6465 6.72917 15.4482 6.72917 15.209V9.37565C6.72917 6.80315 7.51084 6.02148 10.0833 6.02148C10.3225 6.02148 10.5208 6.21982 10.5208 6.45898C10.5208 6.69815 10.3225 6.89648 10.0833 6.89648C8.00084 6.89648 7.60417 7.28732 7.60417 9.37565V15.209C7.60417 15.4482 7.40584 15.6465 7.16667 15.6465Z" fill="#DC6803"/>
<path d="M18.8333 15.6465C18.5942 15.6465 18.3958 15.4482 18.3958 15.209V9.37565C18.3958 7.28732 17.9992 6.89648 15.9167 6.89648C15.6775 6.89648 15.4792 6.69815 15.4792 6.45898C15.4792 6.21982 15.6775 6.02148 15.9167 6.02148C18.4892 6.02148 19.2708 6.80315 19.2708 9.37565V15.209C19.2708 15.4482 19.0725 15.6465 18.8333 15.6465Z" fill="#DC6803"/>
<path d="M10.2 18.2718H8.80001C7.38834 18.2718 6.72917 17.6126 6.72917 16.2009V14.2818C6.72917 12.8701 7.38834 12.2109 8.80001 12.2109H10.2C11.6117 12.2109 12.2708 12.8701 12.2708 14.2818V16.2009C12.2708 17.6126 11.6117 18.2718 10.2 18.2718ZM8.80001 13.0859C7.87251 13.0859 7.60417 13.3543 7.60417 14.2818V16.2009C7.60417 17.1284 7.87251 17.3968 8.80001 17.3968H10.2C11.1275 17.3968 11.3958 17.1284 11.3958 16.2009V14.2818C11.3958 13.3543 11.1275 13.0859 10.2 13.0859H8.80001Z" fill="#DC6803"/>
<path d="M17.2 18.2718H15.8C14.3883 18.2718 13.7292 17.6126 13.7292 16.2009V14.2818C13.7292 12.8701 14.3883 12.2109 15.8 12.2109H17.2C18.6117 12.2109 19.2708 12.8701 19.2708 14.2818V16.2009C19.2708 17.6126 18.6117 18.2718 17.2 18.2718ZM15.8 13.0859C14.8725 13.0859 14.6042 13.3543 14.6042 14.2818V16.2009C14.6042 17.1284 14.8725 17.3968 15.8 17.3968H17.2C18.1275 17.3968 18.3958 17.1284 18.3958 16.2009V14.2818C18.3958 13.3543 18.1275 13.0859 17.2 13.0859H15.8Z" fill="#DC6803"/>
</svg>
