<svg width="25" height="25" viewBox="0 0 25 25" fill="none" xmlns="http://www.w3.org/2000/svg">
<rect x="0.5" y="0.251953" width="24" height="24" rx="6" fill="#EFF8FF"/>
<path d="M12.3333 5.33398H11C7.66667 5.33398 6.33334 6.66732 6.33334 10.0007V14.0007C6.33334 17.334 7.66667 18.6673 11 18.6673H15C18.3333 18.6673 19.6667 17.334 19.6667 14.0007V12.6673" stroke="#0086C9" stroke-width="1.5" stroke-linecap="round" stroke-linejoin="round"/>
<path d="M15.6933 6.0135L10.44 11.2668C10.24 11.4668 10.04 11.8602 10 12.1468L9.71334 14.1535C9.60667 14.8802 10.12 15.3868 10.8467 15.2868L12.8533 15.0002C13.1333 14.9602 13.5267 14.7602 13.7333 14.5602L18.9867 9.30684C19.8933 8.40017 20.32 7.34684 18.9867 6.0135C17.6533 4.68017 16.6 5.10684 15.6933 6.0135Z" stroke="#0086C9" stroke-width="1.5" stroke-miterlimit="10" stroke-linecap="round" stroke-linejoin="round"/>
<path d="M14.94 6.76758C15.3867 8.36091 16.6333 9.60758 18.2333 10.0609" stroke="#0086C9" stroke-width="1.5" stroke-miterlimit="10" stroke-linecap="round" stroke-linejoin="round"/>
</svg>
